<svg width="186" height="179" viewBox="0 0 186 179" fill="none" xmlns="http://www.w3.org/2000/svg">
<path d="M3.7 101.6H33.45V109.85H14.75V114.6H30.75V122.5H14.75V127.75H33.8V136H3.7V101.6ZM71.834 136L70.384 131.15H58.334L56.884 136H45.584L58.134 101.6H70.984L83.534 136H71.834ZM60.634 123.45H68.084L64.484 111.2H64.284L60.634 123.45ZM129.35 112.15C129.35 114.25 128.783 116.15 127.65 117.85C126.517 119.55 124.867 120.8 122.7 121.6L130.35 136H117.95L111.85 123.45H107.75V136H96.7V101.6H117.75C120.217 101.6 122.317 102.083 124.05 103.05C125.817 103.983 127.133 105.267 128 106.9C128.9 108.5 129.35 110.25 129.35 112.15ZM118.1 112.6C118.1 111.7 117.8 110.95 117.2 110.35C116.6 109.75 115.867 109.45 115 109.45H107.75V115.8H115C115.867 115.8 116.6 115.5 117.2 114.9C117.8 114.267 118.1 113.5 118.1 112.6ZM169.216 136L154.766 119.3V136H144.616V101.6H154.266L168.716 118.55V101.6H178.866V136H169.216Z" fill="white"/>
<path d="M4.0855 163L5.379 152.275H6.783L9.76 160.166L12.737 152.275H14.141L15.4345 163H14.115L13.0815 154.693L10.202 162.46H9.318L6.4385 154.693L5.405 163H4.0855ZM29.774 163.208C29.1543 163.208 28.5932 163.056 28.0905 162.753C27.5922 162.445 27.1957 162.025 26.901 161.492C26.6107 160.959 26.4655 160.35 26.4655 159.665C26.4655 158.989 26.6085 158.387 26.8945 157.858C27.1805 157.325 27.5727 156.905 28.071 156.597C28.5693 156.29 29.137 156.136 29.774 156.136C30.3373 156.136 30.8508 156.262 31.3145 156.513C31.7825 156.764 32.1443 157.113 32.4 157.559V156.344H33.661V163H32.4V161.752C32.1097 162.211 31.737 162.569 31.282 162.824C30.827 163.08 30.3243 163.208 29.774 163.208ZM30.112 162.122C30.567 162.122 30.9678 162.018 31.3145 161.81C31.6655 161.598 31.9407 161.308 32.14 160.939C32.3393 160.571 32.439 160.149 32.439 159.672C32.439 159.195 32.3393 158.773 32.14 158.404C31.9407 158.036 31.6655 157.748 31.3145 157.54C30.9678 157.328 30.567 157.221 30.112 157.221C29.6613 157.221 29.2605 157.328 28.9095 157.54C28.5585 157.748 28.2812 158.036 28.0775 158.404C27.8782 158.773 27.7785 159.195 27.7785 159.672C27.7785 160.144 27.8782 160.567 28.0775 160.939C28.2812 161.308 28.5585 161.598 28.9095 161.81C29.2605 162.018 29.6613 162.122 30.112 162.122ZM45.4221 163V156.344H46.6831V157.202C46.8868 156.899 47.1793 156.645 47.5606 156.441C47.942 156.238 48.3948 156.136 48.9191 156.136C49.4348 156.136 49.8811 156.244 50.2581 156.461C50.6351 156.673 50.9255 156.981 51.1291 157.384C51.3371 157.787 51.4411 158.268 51.4411 158.827V163H50.1801V159.08C50.1801 158.456 50.0306 157.978 49.7316 157.644C49.4326 157.31 49.0123 157.143 48.4706 157.143C48.098 157.143 47.7773 157.219 47.5086 157.371C47.2443 157.518 47.0406 157.718 46.8976 157.969C46.7546 158.216 46.6831 158.487 46.6831 158.781V163H45.4221ZM65.8998 163.208C65.2801 163.208 64.719 163.056 64.2163 162.753C63.718 162.445 63.3215 162.025 63.0268 161.492C62.7365 160.959 62.5913 160.35 62.5913 159.665C62.5913 158.989 62.7343 158.387 63.0203 157.858C63.3063 157.325 63.6985 156.905 64.1968 156.597C64.6951 156.29 65.2628 156.136 65.8998 156.136C66.4631 156.136 66.9766 156.262 67.4403 156.513C67.9083 156.764 68.2701 157.113 68.5258 157.559V156.344H69.7868V163H68.5258V161.752C68.2355 162.211 67.8628 162.569 67.4078 162.824C66.9528 163.08 66.4501 163.208 65.8998 163.208ZM66.2378 162.122C66.6928 162.122 67.0936 162.018 67.4403 161.81C67.7913 161.598 68.0665 161.308 68.2658 160.939C68.4651 160.571 68.5648 160.149 68.5648 159.672C68.5648 159.195 68.4651 158.773 68.2658 158.404C68.0665 158.036 67.7913 157.748 67.4403 157.54C67.0936 157.328 66.6928 157.221 66.2378 157.221C65.7871 157.221 65.3863 157.328 65.0353 157.54C64.6843 157.748 64.407 158.036 64.2033 158.404C64.004 158.773 63.9043 159.195 63.9043 159.672C63.9043 160.144 64.004 160.567 64.2033 160.939C64.407 161.308 64.6843 161.598 65.0353 161.81C65.3863 162.018 65.7871 162.122 66.2378 162.122ZM84.5639 166.575C83.7059 166.575 82.9823 166.41 82.3929 166.081C81.8036 165.752 81.3681 165.271 81.0864 164.638L82.1329 164.144C82.3323 164.556 82.6508 164.883 83.0884 165.126C83.5261 165.373 84.0179 165.496 84.5639 165.496C85.0319 165.496 85.4479 165.403 85.8119 165.217C86.1803 165.03 86.4684 164.764 86.6764 164.417C86.8888 164.07 86.9949 163.657 86.9949 163.176V161.752C86.7133 162.207 86.3428 162.564 85.8834 162.824C85.4241 163.08 84.9171 163.208 84.3624 163.208C83.7471 163.208 83.1903 163.056 82.6919 162.753C82.1936 162.45 81.7971 162.031 81.5024 161.498C81.2078 160.965 81.0604 160.357 81.0604 159.672C81.0604 158.992 81.2056 158.387 81.4959 157.858C81.7863 157.325 82.1806 156.905 82.6789 156.597C83.1816 156.29 83.7514 156.136 84.3884 156.136C84.9431 156.136 85.4501 156.262 85.9094 156.513C86.3688 156.764 86.7306 157.113 86.9949 157.559V156.344H88.2559V163.182C88.2559 163.893 88.1108 164.502 87.8204 165.009C87.5344 165.516 87.1163 165.903 86.5659 166.172C86.0156 166.441 85.3483 166.575 84.5639 166.575ZM84.7004 162.122C85.1554 162.122 85.5584 162.018 85.9094 161.81C86.2648 161.598 86.5421 161.308 86.7414 160.939C86.9408 160.571 87.0404 160.151 87.0404 159.678C87.0404 159.202 86.9386 158.779 86.7349 158.411C86.5356 158.038 86.2604 157.748 85.9094 157.54C85.5584 157.328 85.1576 157.221 84.7069 157.221C84.2563 157.221 83.8554 157.328 83.5044 157.54C83.1534 157.748 82.8761 158.038 82.6724 158.411C82.4731 158.779 82.3734 159.202 82.3734 159.678C82.3734 160.151 82.4731 160.571 82.6724 160.939C82.8718 161.308 83.1469 161.598 83.4979 161.81C83.8489 162.018 84.2498 162.122 84.7004 162.122ZM103.093 163.208C102.395 163.208 101.769 163.054 101.215 162.746C100.66 162.439 100.222 162.021 99.9016 161.492C99.5809 160.959 99.4206 160.359 99.4206 159.691C99.4206 159.197 99.5116 158.736 99.6936 158.307C99.8756 157.878 100.129 157.501 100.454 157.176C100.779 156.847 101.156 156.591 101.585 156.409C102.014 156.227 102.473 156.136 102.963 156.136C103.656 156.136 104.263 156.279 104.783 156.565C105.307 156.851 105.715 157.25 106.005 157.761C106.3 158.272 106.447 158.866 106.447 159.542C106.447 159.598 106.445 159.644 106.441 159.678C106.436 159.713 106.428 159.759 106.415 159.815H100.695C100.695 160.279 100.799 160.688 101.007 161.043C101.219 161.399 101.509 161.678 101.878 161.882C102.25 162.081 102.677 162.181 103.158 162.181C103.613 162.181 104.02 162.088 104.38 161.901C104.74 161.715 105.052 161.438 105.316 161.069L106.239 161.55C105.923 162.075 105.487 162.482 104.933 162.772C104.382 163.063 103.769 163.208 103.093 163.208ZM100.76 158.885H105.18C105.119 158.543 104.985 158.244 104.777 157.988C104.573 157.728 104.315 157.527 104.003 157.384C103.695 157.237 103.355 157.163 102.983 157.163C102.593 157.163 102.239 157.234 101.923 157.377C101.611 157.516 101.353 157.715 101.15 157.975C100.95 158.231 100.82 158.534 100.76 158.885ZM117.623 163V156.344H118.884V157.202C119.166 156.847 119.484 156.58 119.839 156.402C120.195 156.225 120.589 156.136 121.022 156.136C121.56 156.136 122.032 156.259 122.439 156.506C122.847 156.749 123.131 157.081 123.291 157.501C123.568 157.076 123.902 156.743 124.292 156.5C124.682 156.257 125.139 156.136 125.663 156.136C126.14 156.136 126.563 156.233 126.931 156.428C127.299 156.623 127.59 156.905 127.802 157.273C128.014 157.642 128.12 158.088 128.12 158.612V163H126.859V158.963C126.859 158.409 126.714 157.969 126.424 157.644C126.134 157.319 125.748 157.156 125.267 157.156C124.933 157.156 124.632 157.23 124.363 157.377C124.099 157.52 123.889 157.709 123.733 157.943C123.581 158.173 123.505 158.415 123.505 158.671V163H122.244V158.879C122.244 158.355 122.101 157.936 121.815 157.624C121.529 157.312 121.148 157.156 120.671 157.156C120.338 157.156 120.034 157.228 119.761 157.371C119.493 157.51 119.278 157.692 119.118 157.917C118.962 158.142 118.884 158.378 118.884 158.625V163H117.623ZM142.913 163.208C142.216 163.208 141.589 163.054 141.035 162.746C140.48 162.439 140.042 162.021 139.722 161.492C139.401 160.959 139.241 160.359 139.241 159.691C139.241 159.197 139.332 158.736 139.514 158.307C139.696 157.878 139.949 157.501 140.274 157.176C140.599 156.847 140.976 156.591 141.405 156.409C141.834 156.227 142.294 156.136 142.783 156.136C143.477 156.136 144.083 156.279 144.603 156.565C145.128 156.851 145.535 157.25 145.825 157.761C146.12 158.272 146.267 158.866 146.267 159.542C146.267 159.598 146.265 159.644 146.261 159.678C146.256 159.713 146.248 159.759 146.235 159.815H140.515C140.515 160.279 140.619 160.688 140.827 161.043C141.039 161.399 141.329 161.678 141.698 161.882C142.07 162.081 142.497 162.181 142.978 162.181C143.433 162.181 143.841 162.088 144.2 161.901C144.56 161.715 144.872 161.438 145.136 161.069L146.059 161.55C145.743 162.075 145.307 162.482 144.753 162.772C144.202 163.063 143.589 163.208 142.913 163.208ZM140.58 158.885H145C144.939 158.543 144.805 158.244 144.597 157.988C144.393 157.728 144.135 157.527 143.823 157.384C143.516 157.237 143.175 157.163 142.803 157.163C142.413 157.163 142.06 157.234 141.743 157.377C141.431 157.516 141.173 157.715 140.97 157.975C140.77 158.231 140.64 158.534 140.58 158.885ZM157.443 163V156.344H158.704V157.202C158.908 156.899 159.2 156.645 159.582 156.441C159.963 156.238 160.416 156.136 160.94 156.136C161.456 156.136 161.902 156.244 162.279 156.461C162.656 156.673 162.946 156.981 163.15 157.384C163.358 157.787 163.462 158.268 163.462 158.827V163H162.201V159.08C162.201 158.456 162.052 157.978 161.753 157.644C161.454 157.31 161.033 157.143 160.492 157.143C160.119 157.143 159.798 157.219 159.53 157.371C159.265 157.518 159.062 157.718 158.919 157.969C158.776 158.216 158.704 158.487 158.704 158.781V163H157.443ZM176.87 163.208C176.324 163.208 175.899 163.028 175.596 162.668C175.292 162.304 175.141 161.795 175.141 161.141V157.299H174.4V156.344H175.141V153.854H176.402V156.344H178.001V157.299H176.402V161.063C176.402 161.392 176.467 161.646 176.597 161.823C176.727 162.001 176.913 162.09 177.156 162.09C177.398 162.09 177.615 162.018 177.806 161.875L178.124 162.883C177.955 162.983 177.758 163.061 177.533 163.117C177.312 163.178 177.091 163.208 176.87 163.208Z" fill="white"/>
<path d="M50 37.5306V36.3061L49.0385 35.9796V35H47.4038V35.9796C47.4038 35.9796 47.0479 35.9421 46.8269 35.9796C46.202 36.0857 45.8934 36.3699 45.6731 36.8776C45.4913 37.2963 45.522 37.6746 45.6731 38.102C45.9615 38.9184 47.6923 39.0816 48.2692 39.7347C48.5621 40.0662 48.5638 40.4654 48.2692 40.7959C48.004 41.0935 47.4517 41.0259 47.0192 40.9592C45.9615 40.7959 45 40.0612 45 40.0612V41.449L46.7308 42.0204V43H48.3654V42.0204C48.3654 42.0204 50 41.3825 50 40.2397C50 39.6109 49.6665 39.17 49.0385 38.8367C48.2692 38.4286 46.5385 38.0204 47.0192 37.2857C47.1761 37.046 47.4731 36.8554 47.7885 36.7959C48.6538 36.6327 50 37.5306 50 37.5306Z" fill="#0C79F4"/>
<path d="M45.6702 0.0892234C40.2638 -0.272486 34.8403 0.468002 29.7287 2.26576C24.6172 4.06351 19.9242 6.88105 15.9344 10.5474C11.9447 14.2138 8.74152 18.6525 6.51917 23.5942C4.29681 28.536 3.10165 33.8778 3.00621 39.2954C2.91076 44.7131 3.91702 50.0936 5.96393 55.1106C8.01085 60.1276 11.0557 64.6764 14.9138 68.481C18.7719 72.2856 23.3628 75.2667 28.4078 77.2434C33.4529 79.2201 38.847 80.1511 44.2627 79.9801L43.7516 63.7977C40.5279 63.8996 37.3172 63.3453 34.3142 62.1687C31.3111 60.9921 28.5785 59.2177 26.282 56.953C23.9855 54.6884 22.1731 51.9807 20.9546 48.9944C19.7362 46.0081 19.1373 42.8054 19.1941 39.5806C19.2509 36.3558 19.9623 33.1762 21.2851 30.2346C22.608 27.2931 24.5147 24.651 26.8895 22.4686C29.2643 20.2863 32.0578 18.6092 35.1004 17.5391C38.143 16.469 41.3713 16.0282 44.5894 16.2435L45.6702 0.0892234Z" fill="url(#paint0_linear_321_119)"/>
<path d="M65 0H45.9266H44V16.7361C44 16.7361 48.9806 17.3299 52.0917 16.7361C54.6684 16.2443 56.2459 15.9775 58.4495 14.4633C60.5554 13.0163 61.585 11.7987 62.8807 9.50445C64.573 6.50795 65 0 65 0Z" fill="#0C79F4"/>
<path d="M65 80H45.9266H44V64.0855C44 64.0855 48.9806 63.7767 52.0917 64.3326C54.6684 64.793 56.2459 65.0427 58.4495 66.4603C60.5554 67.8149 61.585 68.9547 62.8807 71.1025C64.573 73.9076 65 80 65 80Z" fill="#38C8BE"/>
<path d="M19.1068 20.195C11.808 23.2754 3 32 3 32C3 32 3.54575 28.7379 4.34114 26.6046C6.92575 19.6724 10.0146 15.3077 15.5021 10.3637C21.7791 4.70842 26.3789 2.67966 34.6379 0.968094C42.1843 -0.595798 65 0.204994 65 0.204994C65 0.204994 64.8282 4.03731 64.2346 6.04626C61.6831 14.6812 55.5597 15.951 51.7325 16.7129C47.9465 17.4667 41.6679 15.9362 34.471 16.7899C28.3689 17.5138 24.7711 17.8045 19.1068 20.195Z" fill="#17DBDB"/>
<path d="M28.7017 58.6409C23.0983 54.5631 20 44 20 44C20 44 21.0502 56.9552 24.7253 63.8481C28.7055 71.3132 38.895 79.7033 38.895 79.7033C39.255 80.0347 47.297 80.0338 65 79.9601C65 79.9601 64.753 77.4021 64.5028 75.8504C64.0044 72.7605 63.0706 70.4583 61.0221 68.1447C58.4636 65.255 55.8046 64.5562 52.0718 63.8481C47.6404 63.0075 43.482 64.2011 38.6464 63.2644C34.6685 62.4938 32.0008 61.0418 28.7017 58.6409Z" fill="url(#paint1_linear_321_119)"/>
<path d="M177.885 54.4045C178.351 47.5113 177.397 40.5964 175.083 34.0791C172.768 27.5619 169.141 21.5783 164.42 16.4914C159.7 11.4045 153.985 7.32044 147.622 4.48694C141.26 1.65343 134.382 0.129603 127.407 0.00791251C120.432 -0.113778 113.504 1.16921 107.045 3.77902C100.586 6.38883 94.7292 10.271 89.8307 15.1901C84.9323 20.1092 81.0941 25.9625 78.5492 32.395C76.0042 38.8274 74.8054 45.7049 75.0257 52.61L95.8604 51.9583C95.7293 47.8481 96.4429 43.7544 97.9577 39.9255C99.4726 36.0967 101.757 32.6125 104.673 29.6845C107.589 26.7565 111.075 24.4456 114.92 22.8922C118.765 21.3387 122.888 20.575 127.04 20.6475C131.192 20.7199 135.286 21.6269 139.073 23.3136C142.86 25.0002 146.262 27.4312 149.072 30.4591C151.881 33.487 154.041 37.0487 155.418 40.928C156.796 44.8073 157.364 48.9234 157.086 53.0265L177.885 54.4045Z" fill="url(#paint2_linear_321_119)"/>
<path d="M178 80V55.4771V53H156.342C156.342 53 155.573 59.4036 156.342 63.4037C156.978 66.7166 157.323 68.7447 159.283 71.578C161.155 74.2855 162.731 75.6093 165.7 77.2752C169.578 79.451 178 80 178 80Z" fill="#0C79F4"/>
<path d="M75 80V54.5688V52H95.8877C95.8877 52 96.293 58.6408 95.5635 62.789C94.9592 66.2246 94.6314 68.3278 92.7709 71.2661C90.9929 74.0739 89.4969 75.4467 86.678 77.1743C82.9963 79.4307 75 80 75 80Z" fill="#38C8BE"/>
<path d="M126.5 33C132.299 33 137 37.701 137 43.5V80H135.5C124.73 80 116 71.2696 116 60.5V43.5C116 37.701 120.701 33 126.5 33Z" fill="url(#paint3_linear_321_119)"/>
<path d="M152.296 21.0256C148.376 11.6465 137 0 137 0C137 0 141.423 1.02917 144.138 2.05128C152.961 5.37259 158.517 9.34182 164.809 16.3934C172.007 24.4597 174.589 30.3705 176.768 40.9836C178.758 50.681 177.739 80 177.739 80C177.739 80 172.861 79.7792 170.304 79.0164C159.314 75.7377 157.698 67.8689 156.728 62.9508C155.769 58.0856 157.717 50.0174 156.63 40.7692C155.709 32.9278 155.339 28.3045 152.296 21.0256Z" fill="#17DBDB"/>
<path d="M102.292 32.4088C107.503 25.0623 121 21 121 21C121 21 104.446 22.377 95.6385 27.1954C86.0998 32.4139 75.3792 45.7735 75.3792 45.7735C74.9556 46.2454 74.9568 56.7894 75.0509 80C75.0509 80 78.3195 79.6762 80.3023 79.3481C84.2504 78.6947 87.1921 77.4704 90.1485 74.7845C93.8409 71.4301 94.7337 67.9437 95.6385 63.0497C96.7126 57.2396 95.1875 51.7875 96.3844 45.4475C97.3691 40.232 99.2243 36.7343 102.292 32.4088Z" fill="url(#paint4_linear_321_119)"/>
<path d="M129.679 75.227C131.8 77.5768 137 80 137 80V44.3723C137 44.3723 131.588 37.0533 128.848 38.103C126.08 39.1637 124.466 44.8418 123.45 50.9146C122.675 55.5454 122.901 60.1191 124.128 64.6582C125.33 69.1079 126.54 71.7505 129.679 75.227Z" fill="url(#paint5_linear_321_119)"/>
<path d="M63.9486 28.2533C61.7849 27.3454 59.6195 27 57.4553 27C50.5849 26.9994 43.7151 30.4788 36.8447 30.4788C35.1217 30.4788 33.3998 30.26 31.6767 29.7132C31.4832 29.6518 31.2891 29.6228 31.0994 29.6228C30.1394 29.6228 28.8692 30.8079 28.8692 30.8079C28.8692 30.8079 24.9462 34.1429 25.0006 40.3478C25.0338 44.1382 28.414 48.5564 28.8692 49.222C29.3243 49.8876 29.7038 50.4749 30.3514 50.7461C32.5151 51.6546 34.6805 52 36.8447 52C43.7151 52 50.5854 48.5206 57.4558 48.5206C59.1788 48.5206 60.9008 48.7394 62.6238 49.2863C62.8173 49.3477 63.0115 49.3767 63.2011 49.3767C64.1611 49.3767 65 48.6334 65 47.6016V29.8979C64.9994 29.1925 64.5962 28.5251 63.9486 28.2533ZM31.9779 32.5926C33.1002 32.8739 34.2716 33.0151 35.4764 33.091C35.1484 34.731 33.7071 35.9671 31.9779 35.9671V32.5926ZM31.9779 48.4967V45.8304C33.8951 45.8304 35.4463 47.3521 35.5316 49.2567C34.2749 49.1557 33.1002 48.9046 31.9779 48.4967ZM47.15 44.8571C44.6851 44.8571 42.6876 42.4581 42.6876 39.5C42.6876 36.5413 44.6856 34.1429 47.15 34.1429C49.6143 34.1429 51.6123 36.5413 51.6123 39.5C51.6123 42.4593 49.6138 44.8571 47.15 44.8571ZM62.322 46.4074C61.3448 46.1624 60.3301 46.0251 59.2921 45.9364C59.6195 44.481 60.826 43.3761 62.322 43.1864V46.4074ZM62.322 33.2316C60.599 33.0134 59.262 31.5742 59.209 29.7969C60.2989 29.918 61.3336 30.1445 62.322 30.5033V33.2316Z" fill="url(#paint6_linear_321_119)"/>
<path d="M62.2254 33.8737C63.7471 32.0945 65 28.9194 65 28.9194C65 28.9194 64.5615 28.1529 62.2254 27.5052C55.415 25.6172 44.0644 29.629 44.0644 29.629C44.0644 29.629 31.21 32.6895 32.0384 34.5975C32.8754 36.5255 42.8033 33.166 47.5957 33.8737C51.2502 34.4134 50.8748 37.1766 54.6583 37.8844C58.2118 38.5491 60.2075 36.2329 62.2254 33.8737Z" fill="url(#paint7_linear_321_119)"/>
<path d="M63 29.8L60 29C60.19 31.0374 60.8224 31.8345 63 33V29.8Z" fill="#C4C4C4"/>
<path d="M32.8587 44.9859C31.2908 46.7046 30 49.7717 30 49.7717C30 49.7717 30.4518 50.9225 32.8587 51.5481C39.8754 53.372 51.57 49.0863 51.57 49.0863C51.57 49.0863 64.814 46.1299 63.9604 44.2867C63.098 42.4244 52.8694 45.6696 47.9317 44.9859C44.1664 44.4646 44.5532 41.7954 40.655 41.1117C36.9939 40.4696 34.9377 42.707 32.8587 44.9859Z" fill="url(#paint8_linear_321_119)"/>
<path d="M32 48.9286L35 50C34.7857 47.1429 33.9286 45.3571 32 45V48.9286Z" fill="#C4C4C4"/>
<defs>
<linearGradient id="paint0_linear_321_119" x1="43" y1="0" x2="43" y2="80" gradientUnits="userSpaceOnUse">
<stop stop-color="#0C4477"/>
<stop offset="1" stop-color="#6CE5FF"/>
</linearGradient>
<linearGradient id="paint1_linear_321_119" x1="26.7127" y1="44" x2="43.3726" y2="79.5916" gradientUnits="userSpaceOnUse">
<stop stop-color="#45D1D1"/>
<stop offset="0.506874" stop-color="#1A96DC"/>
<stop offset="1" stop-color="#56ADD9"/>
</linearGradient>
<linearGradient id="paint2_linear_321_119" x1="178" y1="51" x2="75" y2="51" gradientUnits="userSpaceOnUse">
<stop stop-color="#0C4477"/>
<stop offset="1" stop-color="#6CE5FF"/>
</linearGradient>
<linearGradient id="paint3_linear_321_119" x1="132.24" y1="75.1154" x2="126.748" y2="32.9595" gradientUnits="userSpaceOnUse">
<stop stop-color="#0C79F4"/>
<stop offset="1" stop-color="#398EB6"/>
</linearGradient>
<linearGradient id="paint4_linear_321_119" x1="121" y1="29.8011" x2="75.1078" y2="50.7364" gradientUnits="userSpaceOnUse">
<stop stop-color="#45D1D1"/>
<stop offset="0.506874" stop-color="#1A96DC"/>
<stop offset="1" stop-color="#56ADD9"/>
</linearGradient>
<linearGradient id="paint5_linear_321_119" x1="139.371" y1="75.2057" x2="124.083" y2="50.7352" gradientUnits="userSpaceOnUse">
<stop stop-color="#0CBCF4"/>
<stop offset="1" stop-color="#17DB94" stop-opacity="0"/>
</linearGradient>
<linearGradient id="paint6_linear_321_119" x1="29.3005" y1="38.5196" x2="64.9706" y2="43.1575" gradientUnits="userSpaceOnUse">
<stop stop-color="#398EB6"/>
<stop offset="1" stop-color="#0C79F4"/>
</linearGradient>
<linearGradient id="paint7_linear_321_119" x1="61.3189" y1="27.2673" x2="43.4336" y2="39.9293" gradientUnits="userSpaceOnUse">
<stop stop-color="#0CBCF4"/>
<stop offset="1" stop-color="#17DB94" stop-opacity="0"/>
</linearGradient>
<linearGradient id="paint8_linear_321_119" x1="33.7926" y1="51.3679" x2="51.4106" y2="38.0647" gradientUnits="userSpaceOnUse">
<stop stop-color="#0CBCF4"/>
<stop offset="1" stop-color="#17DB94" stop-opacity="0"/>
</linearGradient>
</defs>
</svg>
