<svg width="24" height="24" viewBox="0 0 38 38" fill="none" xmlns="http://www.w3.org/2000/svg">
<path d="M33.5289 37.5381H4.47448C2.25901 37.5381 0.463013 35.7421 0.463013 33.5266V4.47198C0.463013 2.25651 2.25901 0.46051 4.47448 0.46051H33.5289C35.7444 0.46051 37.5404 2.25651 37.5404 4.47198V33.5264C37.5406 35.7419 35.7444 37.5381 33.5289 37.5381Z" fill="#1660CD" stroke="#949497" stroke-width="0.0322923" stroke-miterlimit="10"/>
<path d="M33.5289 37.5381H4.47448C2.25901 37.5381 0.463013 35.7421 0.463013 33.5266V4.47198C0.463013 2.25651 2.25901 0.46051 4.47448 0.46051H33.5289C35.7444 0.46051 37.5404 2.25651 37.5404 4.47198V33.5264C37.5406 35.7419 35.7444 37.5381 33.5289 37.5381Z" fill="#1660CD"/>
<path d="M30.5019 34.5127H7.49865C5.28318 34.5127 3.48718 32.7167 3.48718 30.5013V7.49807C3.48718 5.2826 5.28318 3.4866 7.49865 3.4866H30.5019C32.7173 3.4866 34.5133 5.2826 34.5133 7.49807V30.5013C34.5133 32.7167 32.7173 34.5127 30.5019 34.5127Z" fill="url(#paint0_linear_1549_14716)"/>
<path d="M5.04485 29.6612H4.19285C3.75765 29.6612 3.42832 29.5537 3.20485 29.3388C2.98112 29.1238 2.86938 28.8014 2.86938 28.3716C2.86938 27.894 2.99925 27.5686 3.25925 27.3953C3.51899 27.2222 4.11419 27.1356 5.04485 27.1356H6.20512V10.9974H5.04485C4.13845 10.9974 3.54939 10.9052 3.27738 10.7198C3.00538 10.5348 2.86938 10.1977 2.86938 9.70784C2.86938 9.26624 2.98112 8.94064 3.20485 8.73158C3.42832 8.52278 3.76965 8.41824 4.22912 8.41824H5.04485H20.0193C20.4299 8.41824 20.7414 8.54091 20.9529 8.78544C21.1641 9.03024 21.2702 9.38544 21.2702 9.85104V14.0782C21.2702 14.6993 21.1795 15.1292 20.9982 15.3678C20.8169 15.6068 20.4905 15.726 20.0193 15.726C19.5235 15.726 19.1822 15.5948 18.995 15.3318C18.8075 15.0694 18.7139 14.4782 18.7139 13.5585V10.9972H9.06939V17.0334H13.819V16.0841C13.819 15.4393 13.9065 14.9916 14.0819 14.7406C14.2571 14.49 14.5625 14.3644 14.9974 14.3644C15.4203 14.3644 15.7134 14.4988 15.8766 14.7673C16.0398 15.0361 16.1214 15.6121 16.1214 16.4958V19.8273C16.1214 20.7228 16.0366 21.2961 15.8675 21.5468C15.6982 21.7974 15.3961 21.923 14.9611 21.923C14.5262 21.923 14.227 21.7798 14.0638 21.4932C13.9006 21.2065 13.819 20.6513 13.819 19.8273V19.2004H9.06939V27.135H18.7139V24.234C18.7139 23.3145 18.8075 22.7236 18.995 22.4606C19.1822 22.198 19.5235 22.0665 20.0193 22.0665C20.4785 22.0665 20.8017 22.1892 20.9891 22.4337C21.1763 22.6785 21.2702 23.1412 21.2702 23.822V28.3356C21.2702 28.7654 21.1614 29.094 20.9438 29.3206C20.7262 29.5476 20.4182 29.6609 20.0193 29.6609H5.04485V29.6612Z" fill="white"/>
<path d="M27.5468 10.1805H26.4393C26.3404 10.1805 26.2561 10.169 26.1865 10.1461C26.1166 10.1232 26.0601 10.0802 26.0164 10.0168C25.9729 9.95357 25.9406 9.86477 25.9204 9.74984C25.8998 9.6349 25.89 9.48583 25.89 9.30183C25.89 9.1181 25.9001 8.96877 25.9204 8.85383C25.9406 8.7389 25.9726 8.6485 26.0164 8.58237C26.0601 8.5165 26.1166 8.47197 26.1865 8.44877C26.2564 8.42583 26.3404 8.41437 26.4393 8.41437H34.5657C34.7692 8.41437 34.9145 8.45757 35.0017 8.5437C35.0889 8.62983 35.1324 8.77357 35.1324 8.97437V11.576C35.1324 11.7712 35.0481 11.9106 34.8796 11.9938C34.711 12.077 34.4406 12.1186 34.0686 12.1186C33.8825 12.1186 33.7286 12.1088 33.6065 12.0885C33.4844 12.0685 33.3886 12.0368 33.3188 11.9938C33.2489 11.9509 33.1996 11.8949 33.1705 11.8258C33.1414 11.757 33.127 11.6738 33.127 11.576V10.2664H29.7265V12.8938H32.3772C32.4758 12.8938 32.5604 12.9082 32.63 12.937C32.6998 12.9658 32.7564 13.0146 32.8001 13.0834C32.8436 13.1522 32.8756 13.2472 32.8961 13.3677C32.9164 13.4882 32.9265 13.6405 32.9265 13.8242C32.9265 14.0082 32.9164 14.1589 32.8961 14.2765C32.8756 14.3944 32.8438 14.4874 32.8001 14.5565C32.7566 14.6253 32.6998 14.6744 32.63 14.7029C32.5601 14.7317 32.4758 14.7461 32.3772 14.7461H29.7265V16.8741H31.6185C31.7172 16.8741 31.8017 16.8856 31.8713 16.9085C31.9412 16.9314 31.9977 16.976 32.0414 17.0421C32.0849 17.1082 32.1169 17.1986 32.1374 17.3136C32.1577 17.4285 32.1678 17.5778 32.1678 17.7616C32.1678 17.9456 32.1577 18.0946 32.1374 18.2096C32.1169 18.3245 32.0852 18.4136 32.0414 18.4765C31.998 18.5397 31.9412 18.5829 31.8713 18.6058C31.8014 18.6288 31.7172 18.6402 31.6185 18.6402H26.4393C26.3404 18.6402 26.2561 18.6288 26.1865 18.6058C26.1166 18.5829 26.0601 18.54 26.0164 18.4765C25.9729 18.4133 25.9406 18.3245 25.9204 18.2096C25.8998 18.0946 25.89 17.9456 25.89 17.7616C25.89 17.5778 25.9001 17.4285 25.9204 17.3136C25.9406 17.1986 25.9726 17.1082 26.0164 17.0421C26.0601 16.9762 26.1166 16.9317 26.1865 16.9085C26.2564 16.8856 26.3404 16.8741 26.4393 16.8741H27.5468V10.1805Z" fill="white"/>
<path d="M35.021 20.4916H25.9847C25.9234 20.4916 25.8738 20.442 25.8738 20.3807V19.8047C25.8738 19.7434 25.9234 19.6938 25.9847 19.6938H35.021C35.0823 19.6938 35.1319 19.7434 35.1319 19.8047V20.3807C35.1319 20.442 35.0823 20.4916 35.021 20.4916Z" fill="white"/>
<defs>
<linearGradient id="paint0_linear_1549_14716" x1="10.6814" y1="0.490097" x2="31.7559" y2="46.6599" gradientUnits="userSpaceOnUse">
<stop stop-color="#165FCC"/>
<stop offset="0.59972" stop-color="#165FCC"/>
<stop offset="0.644028" stop-color="#1A67D8"/>
<stop offset="0.698036" stop-color="#2E79E7"/>
<stop offset="0.757336" stop-color="#4C9EFF"/>
<stop offset="0.997703" stop-color="#DCECFF"/>
</linearGradient>
</defs>
</svg>
