<?xml version="1.0" standalone="no"?>
<!DOCTYPE svg PUBLIC "-//W3C//DTD SVG 20010904//EN"
 "http://www.w3.org/TR/2001/REC-SVG-20010904/DTD/svg10.dtd">
<svg version="1.0" xmlns="http://www.w3.org/2000/svg"
 width="208.000000pt" height="135.000000pt" viewBox="0 0 208.000000 135.000000"
 preserveAspectRatio="xMidYMid meet">

<g transform="translate(0.000000,135.000000) scale(0.100000,-0.100000)"
fill="#FFFFFF" stroke="none">
<path d="M1314 801 l-30 -16 18 -40 c9 -22 18 -48 18 -57 0 -10 4 -18 9 -18 4
0 6 12 3 26 -3 19 2 32 21 48 24 20 25 22 9 47 -17 26 -18 26 -48 10z"/>
<path d="M883 642 c-29 -2 -53 -7 -53 -13 0 -6 -7 -6 -19 1 -29 15 -268 13
-274 -2 -4 -10 -7 -10 -14 -1 -6 9 -66 12 -216 12 -190 -1 -206 -2 -198 -17 5
-9 6 -32 4 -49 -3 -18 -3 -39 1 -48 7 -19 33 -9 39 16 3 12 14 19 29 19 12 0
33 3 45 6 18 5 22 1 25 -23 4 -34 32 -38 36 -5 4 30 37 29 57 -1 20 -31 75
-35 82 -6 7 23 7 23 41 0 17 -12 41 -19 67 -18 40 2 40 2 43 45 2 23 7 42 12
42 4 0 6 -9 3 -20 -4 -15 0 -20 15 -20 14 0 22 -8 24 -22 3 -21 9 -23 77 -26
52 -2 80 1 96 12 21 14 24 14 29 0 9 -22 168 -15 194 9 18 16 20 16 37 -3 18
-19 45 -26 58 -14 3 3 -5 17 -19 31 -30 30 -30 31 3 65 l27 28 -29 0 c-16 0
-36 -7 -46 -15 -14 -14 -19 -14 -31 -2 -16 17 -69 23 -145 19z m-193 -44 c0
-5 -4 -8 -10 -8 -5 0 -10 10 -10 23 0 18 2 19 10 7 5 -8 10 -18 10 -22z m305
2 c17 -19 17 -21 0 -40 -27 -29 -35 -25 -35 20 0 45 8 49 35 20z m-227 1 c21
-13 10 -46 -16 -49 -16 -2 -25 3 -31 20 -12 32 16 49 47 29z m147 -21 c0 -20
-5 -25 -25 -25 -28 0 -41 32 -18 46 23 15 43 5 43 -21z m-379 -36 c-5 -13 -10
-14 -18 -6 -6 6 -8 18 -4 28 5 13 10 14 18 6 6 -6 8 -18 4 -28z"/>
<path d="M1187 633 c-9 -8 -9 -107 -1 -116 11 -11 34 5 34 24 0 29 35 24 59
-8 20 -26 22 -27 35 -10 12 16 14 16 20 2 5 -13 20 -15 82 -13 69 3 77 5 85
26 6 16 17 22 39 22 17 0 40 5 51 10 17 10 19 7 19 -25 0 -29 3 -36 18 -33 9
2 18 13 20 26 5 31 49 31 54 0 2 -19 10 -23 41 -24 32 -1 40 3 48 22 12 32 47
32 59 -1 8 -21 15 -24 42 -21 38 4 54 36 19 36 -17 0 -21 6 -21 29 0 55 -7 61
-71 61 -39 0 -59 -4 -59 -12 0 -9 -3 -9 -12 0 -19 19 -48 15 -48 -8 0 -15 -7
-20 -25 -20 -18 0 -25 5 -25 20 0 13 -7 20 -20 20 -11 0 -20 -5 -20 -12 0 -9
-3 -9 -12 0 -15 15 -142 17 -133 2 4 -6 4 -28 0 -48 l-6 -38 -47 6 c-47 5 -47
5 -50 46 l-3 41 -83 2 c-45 0 -86 -2 -89 -6z"/>
<path d="M1305 443 c-23 -23 -15 -46 21 -57 16 -5 23 0 32 20 7 14 10 29 7 34
-10 16 -46 18 -60 3z"/>
</g>
</svg>
